<svg
  xmlns="http://www.w3.org/2000/svg"
  width="76"
  height="76"
  viewBox="0.367 0.217 76 76"
><g data-name="CompositeLayer"><path
      d="M.367 38.167a38 38 0 1 1 0 .1z"
      fill="#009100"
      fill-rule="evenodd"
      data-name="Oval"
    /><path
      d="M37.942 60.814a35.477 35.477 0 0 1-3.37-.177 1.427 1.427 0 0 1-1.224-1.82c.66-2.251.703-4.53.134-6.679-2.005-7.486-10.96-11.824-20.217-9.345-.488.135-.967.291-1.442.462a1.425 1.425 0 0 1-1.872-1.008 18.488 18.488 0 0 1-.512-4.238v-.005c0-12.788 12.945-22.812 28.514-22.812 15.57 0 28.516 10.024 28.516 22.812 0 12.786-12.947 22.81-28.516 22.81h-.01Z"
      fill="#fff"
      fill-rule="evenodd"
      data-name="Shape"
    /></g></svg>
