<svg xmlns="http://www.w3.org/2000/svg" width="7.428" height="14.856" viewBox="0 0 7.428 14.856">
  <path id="path2" d="M12.714,15.795a2.653,2.653,0,0,1-2.653-2.653V4.652a1.59,1.59,0,0,1,1.591-1.591h0a1.59,1.59,0,0,1,1.591,1.591v7.43a.53.53,0,0,1-.53.53h0a.531.531,0,0,1-.531-.531V5.714a.531.531,0,0,0-1.061,0v6.367a1.592,1.592,0,0,0,1.592,1.592h0a1.59,1.59,0,0,0,1.591-1.591V4.652A2.652,2.652,0,0,0,11.654,2h0A2.652,2.652,0,0,0,9,4.652v8.49a3.714,3.714,0,1,0,7.428,0V5.714a.531.531,0,1,0-1.061,0v7.428a2.653,2.653,0,0,1-2.653,2.653Z" transform="translate(-9 -2)" fill="#009800" fill-rule="evenodd"/>
</svg>
