<svg
  xmlns="http://www.w3.org/2000/svg"
  width="93.111"
  height="70.954"
  viewBox="0 21.135 93.111 70.954"
><path
    d="m93.111 28.316-1.795-7.18h-7.218v3.018h3.074l-9.403 12.93L70.4 31.19l-7.494 7.494c-.282-2.226-2.168-3.961-4.471-3.961h-.419l6.04-10.568H30.084l5.696 9.365-5.067 4.222H1.067v3.02h30.74l8.865-7.387 9.337 2.667 3.176 3.97a2.45 2.45 0 0 1 .521 1.85 2.452 2.452 0 0 1-.968 1.662c-.973.732-2.36.631-3.221-.23l-3.047-3.046-8.603 6.883.885 1.105c-.286 3.82-2.011 7.538-4.963 10.572-.021.023-.04.047-.06.068h-.601l-3.02-1.51H1.068v3.02h28.326l2.221 1.11a19.363 19.363 0 0 0-3.256 8.95l-6.157-6.155L0 86.493l2.135 2.135L22.202 68.56l6.175 6.174c1.123 9.35 9.133 16.954 18.679 17.339.275.01.548.016.82.016 5.094 0 9.892-1.925 13.583-5.47 3.89-3.736 6.033-8.763 6.033-14.155 0-4.881-1.79-9.472-5.027-13.075.308-.612.498-1.291.498-2.022a4.5 4.5 0 0 0-1.177-3.02 4.493 4.493 0 0 0 1.177-3.018 4.5 4.5 0 0 0-1.177-3.02 4.493 4.493 0 0 0 1.177-3.019c0-.698-.17-1.35-.454-1.94l8.114-8.114 7.728 6.182 11.105-15.27.726 2.903 2.929-.735ZM59.944 39.251c0 .832-.678 1.51-1.51 1.51h-1.77a5.429 5.429 0 0 0-1.122-2.636l-.308-.384h3.2c.832 0 1.51.678 1.51 1.51Zm-19.979-9.22-1.839 1.533-2.67-4.39h23.397l-4.313 7.549h-1.72l-1.055-1.32-11.8-3.372ZM54.548 45.94a5.422 5.422 0 0 0 1.696-2.159h2.19c.832 0 1.51.678 1.51 1.51s-.678 1.51-1.51 1.51h-5.608a5.439 5.439 0 0 0 1.722-.861Zm5.396 5.39c0 .831-.678 1.51-1.51 1.51h-6.038c-.832 0-1.51-.679-1.51-1.51 0-.832.678-1.51 1.51-1.51h6.038c.832 0 1.51.677 1.51 1.51Zm0 6.038c0 .832-.678 1.51-1.51 1.51h-6.038c-.832 0-1.51-.678-1.51-1.51s.678-1.51 1.51-1.51h6.038c.832 0 1.51.678 1.51 1.51Zm-.575 27.074c-3.29 3.16-7.597 4.789-12.19 4.615-8.62-.347-15.76-7.654-15.916-16.287a16.468 16.468 0 0 1 4.69-11.856c3.601-3.703 5.64-8.315 5.837-13.055l4.455-3.564 1.135 1.135c.171.17.36.31.545.453.124.928.521 1.763 1.119 2.426a4.493 4.493 0 0 0-1.178 3.019 4.5 4.5 0 0 0 1.178 3.02 4.493 4.493 0 0 0-1.178 3.019 4.5 4.5 0 0 0 1.178 3.019h-2.687v3.02h-.755a5.29 5.29 0 0 0-5.284 5.283 5.29 5.29 0 0 0 5.284 5.284h4.529a2.267 2.267 0 0 1 2.264 2.264 2.269 2.269 0 0 1-2.264 2.266H45.6a2.267 2.267 0 0 1-2.264-2.264v-.755h-3.019v.755a5.29 5.29 0 0 0 5.284 5.283h.755v3.02h3.019v-3.02h.755a5.29 5.29 0 0 0 5.284-5.283 5.29 5.29 0 0 0-5.284-5.284H45.6a2.267 2.267 0 0 1-2.264-2.264 2.267 2.267 0 0 1 2.265-2.265h4.529a2.267 2.267 0 0 1 2.264 2.265v.754h3.02v-.754a5.29 5.29 0 0 0-5.284-5.284h-.755v-2.687a4.493 4.493 0 0 0 3.02 1.177h6.038c.664 0 1.292-.152 1.861-.41a16.446 16.446 0 0 1 4.177 10.977c0 4.562-1.812 8.817-5.103 11.978Z"
    fill="#00a400"
    fill-rule="evenodd"
    data-name="Path 37"
  /></svg>
