<svg id="Component_1_1" data-name="Component 1 – 1" xmlns="http://www.w3.org/2000/svg" width="19.513" height="19.496" viewBox="0 0 19.513 19.496">
  <path id="Path_169" data-name="Path 169" d="M11,20.746a9.748,9.748,0,0,1,0-19.5,9.548,9.548,0,0,1,4.371,1.043.681.681,0,0,1-.617,1.215A8.161,8.161,0,0,0,11,2.6,8.388,8.388,0,1,0,19.385,11a1.814,1.814,0,0,0,0-.227.683.683,0,0,1,1.36-.127V11A9.757,9.757,0,0,1,11,20.746Z" transform="translate(-1.25 -1.25)" fill="#20bf55"/>
  <path id="Path_170" data-name="Path 170" d="M11.3,14.338a.635.635,0,0,1-.472-.2l-4.38-4.3a.68.68,0,0,1,0-.961.7.7,0,0,1,.97,0l3.89,3.836L20.06,4.11a.7.7,0,0,1,.97,0,.68.68,0,0,1,0,.961L11.8,14.139A.671.671,0,0,1,11.3,14.338Z" transform="translate(-1.716 -1.498)" fill="#20bf55"/>
</svg>
