<svg
  xmlns="http://www.w3.org/2000/svg"
  width="76"
  height="76"
  viewBox="0.298 0.217 76 76"
><g data-name="CompositeLayer"><path
      d="M.298 38.167a38 38 0 1 1 0 .1z"
      fill="#009100"
      fill-rule="evenodd"
      data-name="Oval"
    /><g data-name="Shape"><path
        d="M19.656 57.774c-.826 0-1.495-.67-1.495-1.495V44.13c0-.825.67-1.494 1.495-1.494h8.95c.825 0 1.494.669 1.494 1.494v12.15c0 .825-.67 1.495-1.495 1.495h-8.95ZM33.706 57.773a1.494 1.494 0 0 1-1.495-1.493V38.862c0-.826.67-1.495 1.495-1.495h8.95c.825 0 1.494.67 1.494 1.495V56.28c0 .825-.669 1.493-1.494 1.493h-8.95ZM47.756 57.773a1.494 1.494 0 0 1-1.495-1.493V32.849c0-.826.67-1.495 1.495-1.495h8.948c.826 0 1.495.67 1.495 1.495v23.43c0 .826-.67 1.494-1.495 1.494h-8.948Z"
        fill="#fff"
        fill-rule="evenodd"
        data-name="Shape"
      /><path
        d="M47.935 28.285a1.494 1.494 0 0 1-1.33-2.174l1.68-3.296-3.297-1.678a1.494 1.494 0 1 1 1.357-2.663l4.627 2.358a1.494 1.494 0 0 1 .653 2.009l-2.358 4.627c-.255.501-.77.817-1.332.817Z"
        fill="#fff"
        fill-rule="evenodd"
        data-name="Path"
      /><path
        d="M22.616 32.65a1.494 1.494 0 0 1-.461-2.915l27.204-8.84a1.494 1.494 0 0 1 .923 2.842l-27.204 8.838c-.15.05-.305.075-.462.075Z"
        fill="#fff"
        fill-rule="evenodd"
        data-name="Path"
      /></g></g></svg>
