<svg xmlns="http://www.w3.org/2000/svg" width="66" height="54.766" viewBox="0 0 66 54.766">
  <g id="folder" transform="translate(0 -43.575)">
    <g id="Group_171" data-name="Group 171" transform="translate(0 43.575)">
      <g id="Group_170" data-name="Group 170" transform="translate(0 0)">
        <path id="Path_39" data-name="Path 39" d="M53.713,47.788H33.7a1.053,1.053,0,1,0,0,2.106H53.713a3.163,3.163,0,0,1,3.16,3.16v4.216a5.238,5.238,0,0,0-3.16-1.056H30.543V48.841a5.272,5.272,0,0,0-5.266-5.266H5.266A5.272,5.272,0,0,0,0,48.841V86.054A5.272,5.272,0,0,0,5.266,91.32H34.054a1.053,1.053,0,1,0,0-2.106H5.266a3.163,3.163,0,0,1-3.16-3.16V48.841a3.163,3.163,0,0,1,3.16-3.16H25.277a3.163,3.163,0,0,1,3.16,3.16v8.426a1.053,1.053,0,0,0,1.053,1.053H53.713a3.163,3.163,0,0,1,3.16,3.16V66.4a1.053,1.053,0,0,0,2.106,0V53.054A5.272,5.272,0,0,0,53.713,47.788Z" transform="translate(0 -43.575)" fill="#008c00"/>
      </g>
    </g>
    <g id="Group_173" data-name="Group 173" transform="translate(12.638 56.213)">
      <g id="Group_172" data-name="Group 172">
        <circle id="Ellipse_6" data-name="Ellipse 6" cx="1.053" cy="1.053" r="1.053" fill="#008c00"/>
      </g>
    </g>
    <g id="Group_175" data-name="Group 175" transform="translate(8.426 52)">
      <g id="Group_174" data-name="Group 174" transform="translate(0 0)">
        <circle id="Ellipse_7" data-name="Ellipse 7" cx="1.053" cy="1.053" r="1.053" fill="#008c00"/>
      </g>
    </g>
    <g id="Group_177" data-name="Group 177" transform="translate(35.809 68.149)">
      <g id="Group_176" data-name="Group 176">
        <path id="Path_40" data-name="Path 40" d="M292.884,234.213a15.1,15.1,0,1,0,15.1,15.1A15.113,15.113,0,0,0,292.884,234.213Zm-1.053,28.042a12.889,12.889,0,0,1-4.915-1.412v-7.532h4.915ZM287.652,251.2l2.34-4.213h5.782l2.34,4.213Zm3.511-6.319,1.721-3.1,1.721,3.1Zm2.774,17.37v-8.944h4.915v7.532A12.888,12.888,0,0,1,293.937,262.255Zm7.021-2.779v-7.218a1.053,1.053,0,0,0-.133-.511l-3.5-6.307-3.517-6.331a1.053,1.053,0,0,0-1.841,0l-3.514,6.325-3.507,6.313a1.054,1.054,0,0,0-.133.511v7.218a12.989,12.989,0,1,1,16.149,0Z" transform="translate(-277.788 -234.213)" fill="#008c00"/>
      </g>
    </g>
  </g>
</svg>
