<svg xmlns="http://www.w3.org/2000/svg" width="119" height="119.574" viewBox="0 0 119 119.574">
  <path id="gold-bar" d="M56.169,88.486a13.459,13.459,0,0,0-13.157-9.617H20.293A13.459,13.459,0,0,0,7.135,88.486L2.476,105.568a12.192,12.192,0,0,0,2.131,10.681,13.9,13.9,0,0,0,11.031,5.325H47.667A13.9,13.9,0,0,0,58.7,116.249a12.206,12.206,0,0,0,2.131-10.681Zm-4.258,22.578a5.318,5.318,0,0,1-4.245,1.969H15.638a5.318,5.318,0,0,1-4.245-1.969,3.691,3.691,0,0,1-.675-3.25l4.659-17.082a4.987,4.987,0,0,1,4.915-3.322H43.012a4.987,4.987,0,0,1,4.915,3.322l4.659,17.082A3.709,3.709,0,0,1,51.912,111.064ZM34.5,73.544a13.9,13.9,0,0,0,11.031,5.325H77.56a13.9,13.9,0,0,0,11.031-5.325,12.206,12.206,0,0,0,2.131-10.681L86.063,45.781a13.459,13.459,0,0,0-13.157-9.617H50.186a13.459,13.459,0,0,0-13.157,9.617L32.37,62.863A12.192,12.192,0,0,0,34.5,73.544Zm6.111-8.434,4.659-17.082A4.987,4.987,0,0,1,50.186,44.7H72.905a4.987,4.987,0,0,1,4.915,3.322L82.48,65.109a3.709,3.709,0,0,1-.675,3.25,5.318,5.318,0,0,1-4.245,1.969H45.532a5.318,5.318,0,0,1-4.245-1.969A3.691,3.691,0,0,1,40.612,65.109Zm80,40.459-4.659-17.082A13.459,13.459,0,0,0,102.8,78.869H80.08a13.459,13.459,0,0,0-13.157,9.617l-4.659,17.082a12.192,12.192,0,0,0,2.131,10.681,13.9,13.9,0,0,0,11.031,5.325h32.029a13.9,13.9,0,0,0,11.031-5.325,12.206,12.206,0,0,0,2.131-10.681Zm-8.917,5.5a5.318,5.318,0,0,1-4.245,1.969H75.425a5.318,5.318,0,0,1-4.245-1.969,3.691,3.691,0,0,1-.675-3.25l4.659-17.082A4.987,4.987,0,0,1,80.08,87.41H102.8a4.987,4.987,0,0,1,4.915,3.322l4.659,17.082A3.709,3.709,0,0,1,111.7,111.064ZM91.017,32.41a4.266,4.266,0,0,1,0-6.038l12.077-12.077a4.27,4.27,0,1,1,6.038,6.038L97.055,32.41a4.268,4.268,0,0,1-6.038,0ZM57.369,23.352V6.271a4.271,4.271,0,0,1,8.541,0V23.352a4.271,4.271,0,0,1-8.541,0ZM14.148,20.333a4.27,4.27,0,0,1,6.038-6.038L32.263,26.372a4.27,4.27,0,1,1-6.038,6.038Z" transform="translate(-2.045 -2)" fill="#fff"/>
</svg>
