<svg xmlns="http://www.w3.org/2000/svg" width="62.576" height="63.832" viewBox="0 0 62.576 63.832">
  <path id="hourglass" d="M55.5,50.326a3.8,3.8,0,0,1-2.956,3.7v.7a1.132,1.132,0,0,1-2.263,0v-.66a3.81,3.81,0,0,1-2.482-1.529,1.13,1.13,0,1,1,1.831-1.325,1.538,1.538,0,0,0,1.244.639H51.7a1.531,1.531,0,1,0,0-3.062h-.592a3.793,3.793,0,0,1-.835-7.493V40.6a1.132,1.132,0,0,1,2.263,0v.661a3.817,3.817,0,0,1,2.482,1.529,1.13,1.13,0,0,1-1.831,1.325,1.548,1.548,0,0,0-1.244-.641h-.835a1.531,1.531,0,1,0,0,3.062h.592A3.8,3.8,0,0,1,55.5,50.326Zm-4.088,8.63A11.292,11.292,0,1,0,40.116,47.663,11.3,11.3,0,0,0,51.409,58.955Zm0-24.845A13.553,13.553,0,1,0,64.964,47.663,13.568,13.568,0,0,0,51.409,34.111Zm0,29.459A15.906,15.906,0,1,0,35.5,47.663,15.927,15.927,0,0,0,51.409,63.57ZM9.261,57.121a2.817,2.817,0,0,1,2.814-2.816H34.5a17.894,17.894,0,0,0,2.287,4.126H9.261Zm24.516-5.078H19.28v-.369a8.3,8.3,0,0,1,3.353-6.858l6.156-4.793,4.864,3.785a18.363,18.363,0,0,0-.415,3.855,18.089,18.089,0,0,0,.539,4.38ZM19.4,36.164l5.042-3.924a1.128,1.128,0,0,0,0-1.785L19.4,26.53a13.509,13.509,0,0,1-5.38-11.01V10.65H43.565v4.87a13.5,13.5,0,0,1-5.385,11.01l-5.042,3.924a1.137,1.137,0,0,0,0,1.785l4.544,3.536a18.28,18.28,0,0,0-3.353,5.692L29.488,37.7a1.135,1.135,0,0,0-1.392,0l-6.855,5.334a10.472,10.472,0,0,0-4.224,8.642v.369h-3v-4.87a13.511,13.511,0,0,1,5.38-11.01ZM9.261,5.574V4.261H48.322V5.574A2.818,2.818,0,0,1,45.5,8.388H12.075A2.817,2.817,0,0,1,9.261,5.574ZM51.409,29.5a18.112,18.112,0,0,0-12.134,4.655l-3.6-2.806,3.9-3.031a15.705,15.705,0,0,0,6.25-12.8V10.639a5.086,5.086,0,0,0,4.763-5.065V3.131A1.133,1.133,0,0,0,49.453,2H8.13A1.133,1.133,0,0,0,7,3.131V5.574a5.085,5.085,0,0,0,4.757,5.065V15.52a15.7,15.7,0,0,0,6.256,12.8l3.9,3.031-3.9,3.032a15.7,15.7,0,0,0-6.256,12.8v4.881A5.085,5.085,0,0,0,7,57.121v2.441A1.133,1.133,0,0,0,8.13,60.693H38.76A18.163,18.163,0,1,0,51.409,29.5ZM19.345,15.911a8.247,8.247,0,0,0,3.288,5.727l6.156,4.793,6.162-4.793a8.247,8.247,0,0,0,3.288-5.727Zm8.312,14.9v-2.39l-6.416-5a10.473,10.473,0,0,1-4.224-8.642,1.133,1.133,0,0,1,1.132-1.131H39.435a1.132,1.132,0,0,1,1.131,1.131,10.46,10.46,0,0,1-4.23,8.642l-6.416,5v2.39a1.132,1.132,0,0,1-2.263,0Z" transform="translate(-6.998 -2)" fill="#008c00" fill-rule="evenodd"/>
</svg>
