<svg xmlns="http://www.w3.org/2000/svg" width="55.418" height="63.4" viewBox="0 0 55.418 63.4">
  <path id="insurance_1_" data-name="insurance (1)" d="M56.054,25.855a3.646,3.646,0,0,0,3.885,3.336A6.113,6.113,0,0,1,66.3,35a5.982,5.982,0,0,1-5.1,5.7l.036,1.5A1.238,1.238,0,0,1,60.03,43.47H60a1.238,1.238,0,0,1-1.237-1.208l-.037-1.539A7.229,7.229,0,0,1,54.8,38.514a1.238,1.238,0,1,1,1.7-1.8c1.217,1.149,1.964,1.629,3.436,1.629A3.646,3.646,0,0,0,63.824,35a3.646,3.646,0,0,0-3.885-3.337,6.113,6.113,0,0,1-6.361-5.813,5.983,5.983,0,0,1,5.1-5.7l-.04-1.667a1.238,1.238,0,0,1,2.476-.059l.042,1.763a7.471,7.471,0,0,1,4.36,2.521,1.238,1.238,0,1,1-2.07,1.36,5.7,5.7,0,0,0-3.51-1.556A3.646,3.646,0,0,0,56.054,25.855ZM66.647,5.779a43.3,43.3,0,0,0,14.46,6.329,1.238,1.238,0,0,1,.969,1.209v18.35c0,5.25-2.514,10.916-7.078,15.954a36.321,36.321,0,0,1-14.662,9.895,1.239,1.239,0,0,1-.793,0A36.321,36.321,0,0,1,44.881,47.62c-4.564-5.038-7.078-10.7-7.078-15.954V13.316a1.238,1.238,0,0,1,.969-1.209,43.3,43.3,0,0,0,14.46-6.329,1.238,1.238,0,0,1,.684-.206H65.963a1.238,1.238,0,0,1,.684.206ZM79.6,14.3A46.035,46.035,0,0,1,65.592,8.049H54.286A46.032,46.032,0,0,1,40.279,14.3v17.37c0,4.634,2.286,9.71,6.437,14.291a34.5,34.5,0,0,0,13.223,9.073,34.5,34.5,0,0,0,13.223-9.073C77.313,41.376,79.6,36.3,79.6,31.666V14.3Zm8.049-5.758V31.666a25.676,25.676,0,0,1-2.666,11.171,36.142,36.142,0,0,1-6.672,9.4c-5.14,5.315-11.888,9.473-18.05,11.125a1.238,1.238,0,0,1-.641,0c-6.163-1.651-12.91-5.81-18.05-11.125a36.134,36.134,0,0,1-6.672-9.4A25.674,25.674,0,0,1,32.23,31.666V8.538A1.238,1.238,0,0,1,33.37,7.3C40.982,6.7,47.412,3.123,51.465.23A1.238,1.238,0,0,1,52.184,0h15.51a1.238,1.238,0,0,1,.719.23C72.466,3.123,78.9,6.7,86.508,7.3a1.238,1.238,0,0,1,1.14,1.234ZM85.172,9.661A39.451,39.451,0,0,1,67.3,2.477H52.578A39.451,39.451,0,0,1,34.707,9.661V31.666c0,14.31,14.8,26.256,25.233,29.211,10.429-2.956,25.233-14.9,25.233-29.211Z" transform="translate(-32.23)" fill="#009c00"/>
</svg>
