<svg xmlns="http://www.w3.org/2000/svg" width="61.77" height="86.492" viewBox="0 0 61.77 86.492">
  <g id="lock" transform="translate(-253.7 -35.1)">
    <g id="Group_116" data-name="Group 116" transform="translate(253.7 35.1)">
      <g id="Group_109" data-name="Group 109" transform="translate(0 32.637)">
        <path id="Path_52" data-name="Path 52" d="M310.891,666.255H258.279a4.582,4.582,0,0,1-4.579-4.579v-44.7a4.582,4.582,0,0,1,4.579-4.579h52.611a4.582,4.582,0,0,1,4.579,4.579v44.7A4.582,4.582,0,0,1,310.891,666.255Zm-52.611-51.48a2.208,2.208,0,0,0-2.2,2.2v44.7a2.208,2.208,0,0,0,2.2,2.2h52.611a2.208,2.208,0,0,0,2.2-2.2v-44.7a2.208,2.208,0,0,0-2.2-2.2Z" transform="translate(-253.7 -612.4)" fill="#009c00"/>
      </g>
      <g id="Group_110" data-name="Group 110" transform="translate(7.27 0)">
        <path id="Path_53" data-name="Path 53" d="M428.37,70.112a1.187,1.187,0,0,1-1.187-1.187v-10.2a21.254,21.254,0,1,0-42.508,0v10.2a1.187,1.187,0,0,1-2.374,0v-10.2a23.626,23.626,0,1,1,47.252,0v10.2A1.177,1.177,0,0,1,428.37,70.112Z" transform="translate(-382.3 -35.1)" fill="#009c00"/>
      </g>
      <g id="Group_111" data-name="Group 111" transform="translate(13.879 6.603)">
        <path id="Path_54" data-name="Path 54" d="M532.058,180.309a1.187,1.187,0,0,1-1.187-1.187v-10.2a14.648,14.648,0,0,0-29.3,0v10.2a1.187,1.187,0,0,1-2.374,0v-10.2a17.023,17.023,0,0,1,34.045,0v10.2A1.186,1.186,0,0,1,532.058,180.309Z" transform="translate(-499.2 -151.9)" fill="#009c00"/>
      </g>
      <g id="Group_115" data-name="Group 115" transform="translate(23.14 46.322)">
        <g id="Group_113" data-name="Group 113">
          <g id="Group_112" data-name="Group 112">
            <path id="Path_55" data-name="Path 55" d="M673.922,869.16a1.187,1.187,0,0,1-.571-2.227,5.38,5.38,0,1,0-5.184.006,1.187,1.187,0,1,1-1.142,2.08,7.76,7.76,0,1,1,7.468,0A1.272,1.272,0,0,1,673.922,869.16Z" transform="translate(-663 -854.459)" fill="#009c00"/>
          </g>
        </g>
        <g id="Group_114" data-name="Group 114" transform="translate(3.415 12.327)">
          <path id="Path_56" data-name="Path 56" d="M727.747,1086.673a4.353,4.353,0,0,1-4.347-4.347v-8.639a1.187,1.187,0,1,1,2.374,0v8.639a1.973,1.973,0,0,0,3.946,0v-8.639a1.187,1.187,0,1,1,2.374,0v8.639A4.353,4.353,0,0,1,727.747,1086.673Z" transform="translate(-723.4 -1072.5)" fill="#009c00"/>
        </g>
      </g>
    </g>
  </g>
</svg>
