<svg
  xmlns="http://www.w3.org/2000/svg"
  width="76"
  height="76"
  viewBox="-0.117 0.267 76 76"
><g data-name="CompositeLayer"><path
      d="M37.883.267c20.987 0 38 17.013 38 38 0 20.986-17.013 38-38 38s-38-17.014-38-38c0-20.987 17.013-38 38-38Z"
      fill="#009100"
      fill-rule="evenodd"
      data-name="Oval"
    /><g data-name="Shape"><g data-name="path1998"><path
          d="m30.916 43.326.064-1.098c.162-2.81 1.92-5.17 4.36-6.246a3.692 3.692 0 0 1-.819-2.297c0-2.052 1.689-3.738 3.742-3.738s3.743 1.686 3.743 3.738a3.7 3.7 0 0 1-.818 2.3c2.438 1.077 4.196 3.43 4.358 6.243l.064 1.098H30.916Z"
          fill="#fff"
          fill-rule="evenodd"
        /><path
          d="m30.916 43.326.064-1.098c.162-2.81 1.92-5.17 4.36-6.246a3.692 3.692 0 0 1-.819-2.297c0-2.052 1.689-3.738 3.742-3.738s3.743 1.686 3.743 3.738a3.7 3.7 0 0 1-.818 2.3c2.438 1.077 4.196 3.43 4.358 6.243l.064 1.098H30.916Z"
          stroke-linejoin="round"
          stroke-linecap="round"
          stroke-width=".8"
          stroke="#fff"
          fill="transparent"
        /></g><g data-name="path1343"><path
          d="M34.877 56.529c0-1.493.995-2.757 2.35-3.199v-3.423a12.365 12.365 0 0 1-6.68-2.644l-3.97 3.97a4.85 4.85 0 0 1 .718 2.513c0 2.7-2.213 4.91-4.914 4.91-2.699 0-4.908-2.21-4.908-4.91 0-2.699 2.21-4.912 4.908-4.912 1.032 0 1.99.329 2.783.879l3.876-3.876a12.376 12.376 0 0 1-3.114-6.797h-2.99c-.443 1.353-1.706 2.35-3.2 2.35a3.403 3.403 0 0 1-3.385-3.386 3.403 3.403 0 0 1 3.386-3.386c1.493 0 2.756.995 3.2 2.348h2.913a12.362 12.362 0 0 1 2.762-7.287l-3.61-3.608a4.87 4.87 0 0 1-2.782.88c-2.7 0-4.91-2.214-4.91-4.914 0-2.7 2.21-4.909 4.91-4.909 2.699 0 4.913 2.21 4.913 4.909a4.85 4.85 0 0 1-.717 2.515l3.637 3.637a12.38 12.38 0 0 1 7.173-3.062v-2.45c-1.354-.443-2.349-1.707-2.349-3.2a3.403 3.403 0 0 1 3.387-3.386 3.403 3.403 0 0 1 3.386 3.386c0 1.493-.997 2.757-2.35 3.2v2.45a12.377 12.377 0 0 1 7.06 2.96l3.536-3.535a4.85 4.85 0 0 1-.717-2.515c0-2.7 2.213-4.909 4.914-4.909 2.699 0 4.908 2.21 4.908 4.909 0 2.7-2.21 4.913-4.908 4.913a4.866 4.866 0 0 1-2.783-.879l-3.487 3.488a12.379 12.379 0 0 1 2.855 7.407h2.912c.442-1.353 1.706-2.348 3.199-2.348a3.403 3.403 0 0 1 3.386 3.386 3.403 3.403 0 0 1-3.386 3.386c-1.493 0-2.755-.997-3.199-2.35h-2.989a12.383 12.383 0 0 1-3.14 6.826l3.849 3.847a4.856 4.856 0 0 1 2.783-.879c2.699 0 4.908 2.213 4.908 4.912 0 2.7-2.21 4.91-4.908 4.91-2.7 0-4.914-2.21-4.914-4.91 0-.92.271-1.775.717-2.514l-3.95-3.95a12.356 12.356 0 0 1-6.646 2.625v3.423c1.353.442 2.35 1.706 2.35 3.199a3.403 3.403 0 0 1-3.386 3.386 3.403 3.403 0 0 1-3.387-3.386Z"
          fill="#fff"
          fill-rule="evenodd"
        /><path
          d="M34.877 56.529c0-1.493.995-2.757 2.35-3.199v-3.423a12.365 12.365 0 0 1-6.68-2.644l-3.97 3.97a4.85 4.85 0 0 1 .718 2.513c0 2.7-2.213 4.91-4.914 4.91-2.699 0-4.908-2.21-4.908-4.91 0-2.699 2.21-4.912 4.908-4.912 1.032 0 1.99.329 2.783.879l3.876-3.876a12.376 12.376 0 0 1-3.114-6.797h-2.99c-.443 1.353-1.706 2.35-3.2 2.35a3.403 3.403 0 0 1-3.385-3.386 3.403 3.403 0 0 1 3.386-3.386c1.493 0 2.756.995 3.2 2.348h2.913a12.362 12.362 0 0 1 2.762-7.287l-3.61-3.608a4.87 4.87 0 0 1-2.782.88c-2.7 0-4.91-2.214-4.91-4.914 0-2.7 2.21-4.909 4.91-4.909 2.699 0 4.913 2.21 4.913 4.909a4.85 4.85 0 0 1-.717 2.515l3.637 3.637a12.38 12.38 0 0 1 7.173-3.062v-2.45c-1.354-.443-2.349-1.707-2.349-3.2a3.403 3.403 0 0 1 3.387-3.386 3.403 3.403 0 0 1 3.386 3.386c0 1.493-.997 2.757-2.35 3.2v2.45a12.377 12.377 0 0 1 7.06 2.96l3.536-3.535a4.85 4.85 0 0 1-.717-2.515c0-2.7 2.213-4.909 4.914-4.909 2.699 0 4.908 2.21 4.908 4.909 0 2.7-2.21 4.913-4.908 4.913a4.866 4.866 0 0 1-2.783-.879l-3.487 3.488a12.379 12.379 0 0 1 2.855 7.407h2.912c.442-1.353 1.706-2.348 3.199-2.348a3.403 3.403 0 0 1 3.386 3.386 3.403 3.403 0 0 1-3.386 3.386c-1.493 0-2.755-.997-3.199-2.35h-2.989a12.383 12.383 0 0 1-3.14 6.826l3.849 3.847a4.856 4.856 0 0 1 2.783-.879c2.699 0 4.908 2.213 4.908 4.912 0 2.7-2.21 4.91-4.908 4.91-2.7 0-4.914-2.21-4.914-4.91 0-.92.271-1.775.717-2.514l-3.95-3.95a12.356 12.356 0 0 1-6.646 2.625v3.423c1.353.442 2.35 1.706 2.35 3.199a3.403 3.403 0 0 1-3.386 3.386 3.403 3.403 0 0 1-3.387-3.386Z"
          stroke-linejoin="round"
          stroke-linecap="round"
          stroke-width=".8"
          stroke="#fff"
          fill="transparent"
        /></g></g></g></svg>
