<svg
  xmlns="http://www.w3.org/2000/svg"
  width="77.378"
  height="77.629"
  viewBox="109 3081 77.378 77.629"
><path
    d="M126.244 3101.37a2.418 2.418 0 0 0 2.191 1.394h11.758v4.154a2.418 2.418 0 1 0 4.836 0v-4.154h1.114a2.418 2.418 0 1 0 0-4.836h-1.114v-14.51a2.418 2.418 0 0 0-4.271-1.553l-14.177 16.929a2.418 2.418 0 0 0-.337 2.575Zm13.95-11.298v7.857h-6.58l6.58-7.857Zm12.236 51.363 12.668-19.777h-9.327a2.418 2.418 0 0 1 0-4.837h13.747a2.418 2.418 0 0 1 2.037 3.723l-15.053 23.5a2.418 2.418 0 1 1-4.072-2.608Zm12.659-44.433a2.418 2.418 0 0 1 0 3.42l-35.645 35.645a2.418 2.418 0 1 1-3.42-3.42l35.645-35.645a2.418 2.418 0 0 1 3.42 0Zm-42.412-5.066c.612-2.241.224-3.93-1.153-5.02-1.541-1.22-4.108-1.435-5.843-.49-1.318.718-1.902 1.958-1.736 3.687a2.418 2.418 0 0 1-4.814.463c-.354-3.678 1.19-6.738 4.237-8.397 3.42-1.862 8.111-1.465 11.157.945 2.912 2.304 3.938 5.98 2.817 10.086-.757 2.772-3.347 4.793-6.347 7.134-1.62 1.264-3.367 2.627-4.831 4.156h10.017a2.418 2.418 0 0 1 0 4.836h-14.712a2.418 2.418 0 0 1-2.176-3.473c1.968-4.057 5.558-6.859 8.726-9.33 2.126-1.66 4.324-3.376 4.658-4.597Zm63.701 28.003a38.69 38.69 0 0 1-66.046 27.357A38.436 38.436 0 0 1 109 3119.94a2.418 2.418 0 1 1 4.836 0c0 18.666 15.187 33.853 33.853 33.853 18.667 0 33.853-15.187 33.853-33.853 0-16.947-12.651-31.377-29.429-33.566a2.418 2.418 0 1 1 .626-4.795c19.25 2.537 33.638 18.945 33.64 38.36Z"
    fill="#00a000"
    fill-rule="evenodd"
    data-name="24-7"
  /></svg>
