<svg id="paypal" xmlns="http://www.w3.org/2000/svg" width="82.225" height="21.013" viewBox="0 0 82.225 21.013">
  <path id="Path_130" data-name="Path 130" d="M354.117,221.2H349.68a.867.867,0,0,0-.653.522L347.2,233.207a.346.346,0,0,0,.392.392h2.349a.346.346,0,0,0,.392-.392l.522-3.263a.6.6,0,0,1,.653-.522h1.436q4.5,0,5.09-4.307a3.421,3.421,0,0,0-.522-2.871,5.264,5.264,0,0,0-3.393-1.044m.522,4.307c-.261,1.566-1.436,1.566-2.61,1.566h-.783l.522-3c0-.131.131-.261.392-.261h.261c.783,0,1.566,0,1.958.522.261.131.261.522.261,1.175" transform="translate(-290.556 -215.718)" fill="#139ad6"/>
  <g id="Group_122" data-name="Group 122" transform="translate(24.667 5.482)">
    <path id="Path_131" data-name="Path 131" d="M158.117,221.2H153.68a.867.867,0,0,0-.653.522L151.2,233.207a.346.346,0,0,0,.392.392h2.088a.867.867,0,0,0,.653-.522l.522-3.132a.6.6,0,0,1,.653-.522h1.436q4.5,0,5.09-4.307a3.421,3.421,0,0,0-.522-2.871,5.017,5.017,0,0,0-3.393-1.044m.522,4.307c-.261,1.566-1.436,1.566-2.61,1.566h-.653l.522-3c0-.131.131-.261.392-.261h.261c.783,0,1.566,0,1.958.522a1.4,1.4,0,0,1,.131,1.175" transform="translate(-151.2 -221.2)" fill="#263b80"/>
    <path id="Path_132" data-name="Path 132" d="M224.03,245.461h-2.088c-.131,0-.392.131-.392.261l-.131.653-.131-.261a3.07,3.07,0,0,0-2.48-.914,5.015,5.015,0,0,0-4.829,4.307,3.89,3.89,0,0,0,.783,3.263,3.289,3.289,0,0,0,2.741,1.044,4.172,4.172,0,0,0,3-1.175l-.13.653a.346.346,0,0,0,.392.392h1.958a.867.867,0,0,0,.653-.522l1.175-7.309c-.131-.131-.392-.392-.522-.392m-3,4.176a2.524,2.524,0,0,1-2.48,2.088,2.087,2.087,0,0,1-1.436-.522,2.783,2.783,0,0,1-.392-1.566,2.328,2.328,0,0,1,3.785-1.566,2.279,2.279,0,0,1,.522,1.566" transform="translate(-203.67 -241.285)" fill="#263b80"/>
  </g>
  <path id="Path_133" data-name="Path 133" d="M419.23,245.461h-2.088c-.13,0-.392.131-.392.261l-.131.653-.13-.261a3.07,3.07,0,0,0-2.48-.914,5.015,5.015,0,0,0-4.829,4.307,3.89,3.89,0,0,0,.783,3.263,3.289,3.289,0,0,0,2.741,1.044,4.172,4.172,0,0,0,3-1.175l-.131.653a.346.346,0,0,0,.392.392h1.958a.867.867,0,0,0,.653-.522l1.175-7.309c-.131-.131-.261-.392-.522-.392m-3,4.176a2.524,2.524,0,0,1-2.48,2.088,2.087,2.087,0,0,1-1.436-.522,2.783,2.783,0,0,1-.392-1.566,2.328,2.328,0,0,1,3.785-1.566,1.5,1.5,0,0,1,.522,1.566" transform="translate(-342.357 -235.803)" fill="#139ad6"/>
  <path id="Path_134" data-name="Path 134" d="M294.05,246.8h-2.219a.678.678,0,0,0-.522.261l-2.871,4.438-1.305-4.177a.6.6,0,0,0-.653-.392h-2.088c-.261,0-.392.261-.392.522l2.349,6.917-2.219,3.132c-.131.261,0,.653.261.653h2.088a.678.678,0,0,0,.522-.261l7.178-10.311c.392-.392.13-.783-.131-.783" transform="translate(-237.667 -237.142)" fill="#263b80"/>
  <path id="Path_135" data-name="Path 135" d="M477.027,222,475.2,233.745a.346.346,0,0,0,.392.392h1.827a.867.867,0,0,0,.653-.522l1.827-11.485a.346.346,0,0,0-.392-.392h-2.088c-.13-.131-.261,0-.392.261" transform="translate(-397.674 -216.125)" fill="#139ad6"/>
  <path id="Path_136" data-name="Path 136" d="M15.009,189.166c-.914-1.044-2.61-1.566-4.96-1.566H3.524a1.12,1.12,0,0,0-.914.783L0,205.481a.6.6,0,0,0,.522.653H4.568l1.044-6.4V200a1.12,1.12,0,0,1,.914-.783H8.484c3.785,0,6.656-1.566,7.57-5.873v-.392h0a4.558,4.558,0,0,0-1.044-3.785" transform="translate(0 -187.6)" fill="#263b80"/>
  <path id="Path_137" data-name="Path 137" d="M37.346,220.4h0v.392c-.914,4.438-3.785,5.873-7.57,5.873H27.819a1.12,1.12,0,0,0-.914.783L25.6,235.409a.478.478,0,0,0,.522.522h3.393a.731.731,0,0,0,.783-.653v-.13l.653-4.046v-.261a.731.731,0,0,1,.783-.653h.522c3.263,0,5.873-1.305,6.526-5.221a4.8,4.8,0,0,0-.653-3.915,1.337,1.337,0,0,0-.783-.653" transform="translate(-21.424 -215.049)" fill="#139ad6"/>
  <path id="Path_138" data-name="Path 138" d="M43.8,215.992c-.131,0-.261-.131-.392-.131a.479.479,0,0,1-.392-.131,6.9,6.9,0,0,0-1.7-.131h-5.09a.479.479,0,0,0-.392.131.718.718,0,0,0-.392.653L34.4,223.17v.261a1.12,1.12,0,0,1,.914-.783h1.958c3.785,0,6.656-1.566,7.57-5.873a.48.48,0,0,1,.131-.392c-.261-.13-.392-.261-.653-.261-.392-.131-.392-.131-.522-.131" transform="translate(-28.788 -211.032)" fill="#232c65"/>
</svg>
