<svg
  xmlns="http://www.w3.org/2000/svg"
  width="81.067"
  height="76"
  viewBox="107 2923 81.067 76"
><g data-name="XMLID_1368_"><path
      d="M186.8 2986.46h-31.16c-.38 0-.887.253-1.14.633l-2.153 3.674h-9.754l-2.026-3.674c-.254-.38-.634-.633-1.14-.633h-31.16c-.38 0-.634.127-.887.38s-.38.633-.38 1.013c.507 6.334 5.193 11.147 11.02 11.147h59.027c5.826 0 10.513-4.813 11.02-11.147 0-.38-.127-.76-.38-1.013a1.368 1.368 0 0 0-.887-.38Z"
      fill="#00a000"
      fill-rule="evenodd"
      data-name="XMLID_1477_"
    /><path
      d="M112.7 2983.927h69.54c.76 0 1.267-.634 1.267-1.267v-26.347h-2.534v25.08h-67.006v-45.6c0-2.28 1.9-4.053 4.053-4.053h23.94v-2.533h-23.813c-3.674-.127-6.714 2.913-6.714 6.586v46.867c0 .76.634 1.267 1.267 1.267Z"
      fill="#00a000"
      fill-rule="evenodd"
      data-name="XMLID_1738_"
    /><path
      d="M127.52 2937.44c-3.673 0-6.713 3.04-6.713 6.713v3.547c-1.774.253-3.167 1.773-3.167 3.547v9.5c0 2.026 1.647 3.546 3.547 3.546h12.666c2.027 0 3.547-1.646 3.547-3.546v-9.5c0-1.9-1.52-3.42-3.293-3.547v-3.547c.126-3.673-2.914-6.713-6.587-6.713Zm1.393 19.507c0 .76-.506 1.266-1.266 1.266s-1.267-.506-1.267-1.266v-1.774c0-.633.507-1.266 1.267-1.266.76 0 1.266.633 1.266 1.266v1.774Zm2.787-9.247h-8.36v-3.547c0-2.28 1.9-4.18 4.18-4.18s4.18 1.9 4.18 4.18v3.547Z"
      fill="#00a000"
      fill-rule="evenodd"
      data-name="XMLID_1742_"
    /><path
      d="M168.813 2967.46c0-6.08-4.94-10.893-10.893-10.893-6.08 0-10.893 4.94-10.893 10.893 0 6.08 4.94 10.893 10.893 10.893 5.953.127 10.893-4.813 10.893-10.893Zm-12.16 5.7v-.253c-1.266-.507-2.153-1.647-2.153-3.167 0-.633.507-1.14 1.14-1.14.633 0 1.14.507 1.14 1.14 0 .633.507 1.013 1.013 1.013.634 0 1.014-.506 1.014-1.013 0-.633-.507-1.013-1.014-1.013-1.9 0-3.293-1.52-3.293-3.294 0-1.393.887-2.66 2.153-3.166v-.254c0-.633.507-1.14 1.14-1.14.634 0 1.14.507 1.14 1.14v.254c1.267.506 2.154 1.646 2.154 3.166 0 .634-.507 1.14-1.14 1.14-.634 0-1.14-.506-1.14-1.14 0-.633-.507-1.013-1.014-1.013-.633 0-1.013.507-1.013 1.013 0 .634.507 1.014 1.013 1.014 1.9 0 3.294 1.52 3.294 3.293 0 1.393-.887 2.66-2.154 3.167v.253c0 .633-.506 1.14-1.14 1.14-.633 0-1.14-.507-1.14-1.14Z"
      fill="#00a000"
      fill-rule="evenodd"
      data-name="XMLID_1746_"
    /><path
      d="M140.187 2969.107h-21.28c-.76 0-1.267.506-1.267 1.266s.507 1.267 1.267 1.267h21.28c.76 0 1.266-.507 1.266-1.267 0-.76-.506-1.266-1.266-1.266Z"
      fill="#00a000"
      fill-rule="evenodd"
      data-name="XMLID_1747_"
    /><path
      d="M140.187 2974.68h-21.28c-.76 0-1.267.507-1.267 1.267 0 .76.507 1.266 1.267 1.266h21.28c.76 0 1.266-.506 1.266-1.266s-.506-1.267-1.266-1.267Z"
      fill="#00a000"
      fill-rule="evenodd"
      data-name="XMLID_1748_"
    /><path
      d="M144.62 2930.98h43.447v2.787H144.62v-2.787Z"
      fill="#00a000"
      fill-rule="evenodd"
      data-name="XMLID_1749_"
    /><path
      d="M184.647 2923H148.04c-1.9 0-3.42 1.52-3.42 3.42v2.28h43.447v-2.28c0-1.9-1.52-3.42-3.42-3.42Z"
      fill="#00a000"
      fill-rule="evenodd"
      data-name="XMLID_1750_"
    /><path
      d="M144.62 2950.36c0 1.9 1.52 3.42 3.42 3.42h36.607c1.9 0 3.42-1.52 3.42-3.42v-14.187H144.62v14.187Zm27.867-8.233c0-.507.38-.887.886-.887h5.954c.506 0 .886.38.886.887v3.926c0 .507-.38.887-.886.887h-5.954a.866.866 0 0 1-.886-.887v-3.926Zm-20.9-1.267h10.64c.633 0 1.14.507 1.14 1.14 0 .633-.507 1.14-1.14 1.14h-10.64c-.634 0-1.14-.507-1.14-1.14 0-.633.506-1.14 1.14-1.14Zm0 4.94h15.96c.633 0 1.14.507 1.14 1.14 0 .633-.507 1.14-1.14 1.14h-15.96c-.634 0-1.14-.507-1.14-1.14 0-.633.506-1.14 1.14-1.14Z"
      fill="#00a000"
      fill-rule="evenodd"
      data-name="XMLID_1753_"
    /></g></svg>
