<svg
  xmlns="http://www.w3.org/2000/svg"
  width="83.133"
  height="81.724"
  viewBox="104.934 2766.138 83.133 81.724"
><g data-name="Layer 27"><path
      d="M144.574 2789.669a2.804 2.804 0 0 0 5.261 0 8.371 8.371 0 0 1-5.26 0Z"
      fill="#00a400"
      fill-rule="evenodd"
      data-name="Path 23"
    /><path
      d="M138.75 2781.637v-2.818a1.409 1.409 0 0 0 0 2.818Z"
      fill="#00a400"
      fill-rule="evenodd"
      data-name="Path 24"
    /><path
      d="M140.16 2774.592h3.998a4.765 4.765 0 0 0 4.528-3.263 1.409 1.409 0 0 1 2.333-.55l4.227 4.226c.264.264.413.623.413.996v-4.227c0-.778-.63-1.409-1.41-1.409-.777 0-1.408-.63-1.408-1.409a2.818 2.818 0 0 0-2.818-2.818h-7.045a4.227 4.227 0 0 0-4.227 4.227v5.636c0-.778.63-1.409 1.409-1.409Z"
      fill="#00a400"
      fill-rule="evenodd"
      data-name="Path 25"
    /><path
      d="M155.659 2781.637a1.409 1.409 0 0 0 0-2.818v2.818Z"
      fill="#00a400"
      fill-rule="evenodd"
      data-name="Path 26"
    /><path
      d="M152.84 2781.637v-5.052l-2.441-2.44a7.582 7.582 0 0 1-6.24 3.265h-2.59v4.227a5.636 5.636 0 0 0 11.272 0Z"
      fill="#00a400"
      fill-rule="evenodd"
      data-name="Path 27"
    /><path
      d="M138.75 2847.036v.826h7.046v-2.818h-6.389a3.382 3.382 0 0 0-.656 1.992Z"
      fill="#00a400"
      fill-rule="evenodd"
      data-name="Path 28"
    /><path
      d="M148.614 2845.044v2.818h7.045v-.826a3.382 3.382 0 0 0-.657-1.992h-6.388Z"
      fill="#00a400"
      fill-rule="evenodd"
      data-name="Path 29"
    /><path
      d="M148.614 2842.226h5.636v-26.772h-14.09v26.772h5.636v-23.954h2.818v23.954Z"
      fill="#00a400"
      fill-rule="evenodd"
      data-name="Path 30"
    /><path
      d="M147.205 2794.319a5.636 5.636 0 0 1-5.615-5.424l-7.066 1.01v5.823h4.227c.778 0 1.409.63 1.409 1.409v15.5h14.09v-15.5c0-.778.63-1.41 1.409-1.41h4.227v-5.823l-7.066-1.009a5.636 5.636 0 0 1-5.615 5.424Z"
      fill="#00a400"
      fill-rule="evenodd"
      data-name="Path 31"
    /><path
      d="M113.388 2792.91a2.81 2.81 0 0 0 1.41 2.427v13.17a11.272 11.272 0 1 0 2.817 0v-12.78h14.09v-5.635h-15.499a2.818 2.818 0 0 0-2.818 2.818Zm6.05 31.995-4.228-4.228a1.409 1.409 0 0 1-.413-.996v-4.227h2.818v3.645l3.814 3.815-1.992 1.99Z"
      fill="#00a400"
      fill-rule="evenodd"
      data-name="Path 32"
    /><path
      d="M186.517 2820.311c-.24.48-.732.782-1.268.78h-5.637v2.817h-2.818v-2.818h-5.636a1.409 1.409 0 0 1-1.268-.779l-1.55-3.115v12.348h19.727v-12.348l-1.55 3.115Z"
      fill="#00a400"
      fill-rule="evenodd"
      data-name="Path 33"
    /><path
      d="M176.794 2805.591h-2.818c-.778 0-1.409.63-1.409 1.409v5.636h-3.356l2.818 5.636h4.765v-2.818h2.818v2.818h4.766l2.818-5.636h-3.356V2807c0-.778-.631-1.409-1.41-1.409h-2.818v-10.254a2.81 2.81 0 0 0-1.409-5.245h-15.499v5.636h14.09v9.863Zm4.227 2.818v4.227h-5.636v-4.227h5.636Z"
      fill="#00a400"
      fill-rule="evenodd"
      data-name="Path 34"
    /></g></svg>
