<svg xmlns="http://www.w3.org/2000/svg" xmlns:xlink="http://www.w3.org/1999/xlink" width="63.865" height="63.865" viewBox="0 0 63.865 63.865">
  <defs>
    <clipPath id="clip-path">
      <path id="path4445" d="M0-682.665H63.865V-618.8H0Z" transform="translate(0 682.665)" fill="none"/>
    </clipPath>
  </defs>
  <g id="g4431" transform="translate(0 682.665)">
    <g id="g4433" transform="translate(7.746 -655.17)">
      <path id="path4435" d="M0,0H10.35" fill="none" stroke="#008c00" stroke-linecap="round" stroke-linejoin="round" stroke-miterlimit="10" stroke-width="2"/>
    </g>
    <g id="g4437" transform="translate(7.746 -659.82)">
      <path id="path4439" d="M0,0H10.35" fill="none" stroke="#008c00" stroke-linecap="round" stroke-linejoin="round" stroke-miterlimit="10" stroke-width="2"/>
    </g>
    <g id="g4441" transform="translate(0 -682.665)">
      <g id="g4443" clip-path="url(#clip-path)">
        <g id="g4449" transform="translate(35.76 31.131)">
          <path id="path4451" d="M-131.622-184.394a5.446,5.446,0,0,1-5.446-5.446,5.446,5.446,0,0,1,5.446-5.446,5.446,5.446,0,0,1,5.446,5.446A5.446,5.446,0,0,1-131.622-184.394Zm12.262-8.271a1.32,1.32,0,0,1-1.251-.9,11.526,11.526,0,0,0-.593-1.432,1.321,1.321,0,0,1,.25-1.52h0a1.323,1.323,0,0,0,0-1.871l-2.124-2.124a1.323,1.323,0,0,0-1.871,0h0a1.321,1.321,0,0,1-1.521.25,11.532,11.532,0,0,0-1.432-.593,1.32,1.32,0,0,1-.9-1.251,1.323,1.323,0,0,0-1.323-1.323h-3a1.323,1.323,0,0,0-1.323,1.323,1.32,1.32,0,0,1-.9,1.251,11.53,11.53,0,0,0-1.432.593,1.321,1.321,0,0,1-1.521-.25h0a1.323,1.323,0,0,0-1.871,0l-2.124,2.124a1.323,1.323,0,0,0,0,1.871h0a1.321,1.321,0,0,1,.25,1.52,11.527,11.527,0,0,0-.593,1.432,1.32,1.32,0,0,1-1.251.9,1.323,1.323,0,0,0-1.323,1.323v3a1.323,1.323,0,0,0,1.323,1.323,1.32,1.32,0,0,1,1.251.9,11.544,11.544,0,0,0,.593,1.432,1.321,1.321,0,0,1-.25,1.52h0a1.322,1.322,0,0,0,0,1.871l2.124,2.124a1.322,1.322,0,0,0,1.871,0h0a1.321,1.321,0,0,1,1.521-.25,11.553,11.553,0,0,0,1.432.593,1.32,1.32,0,0,1,.9,1.251,1.323,1.323,0,0,0,1.323,1.323h3a1.323,1.323,0,0,0,1.323-1.323,1.32,1.32,0,0,1,.9-1.251,11.555,11.555,0,0,0,1.432-.593,1.321,1.321,0,0,1,1.521.25h0a1.322,1.322,0,0,0,1.871,0l2.124-2.124a1.322,1.322,0,0,0,0-1.871h0a1.321,1.321,0,0,1-.25-1.52,11.541,11.541,0,0,0,.593-1.432,1.32,1.32,0,0,1,1.251-.9,1.323,1.323,0,0,0,1.323-1.323v-3A1.323,1.323,0,0,0-119.36-192.665Z" transform="translate(145.206 203.425)" fill="none" stroke="#008c00" stroke-linecap="round" stroke-linejoin="round" stroke-miterlimit="10" stroke-width="2"/>
        </g>
        <g id="g4453" transform="translate(0.936 9.146)">
          <path id="path4455" d="M-361.88-.091-388.08-.1h-7.8a3.347,3.347,0,0,0-3.348,3.347v6.72" transform="translate(399.228 0.1)" fill="none" stroke="#008c00" stroke-linecap="round" stroke-linejoin="round" stroke-miterlimit="10" stroke-width="2"/>
        </g>
        <g id="g4457" transform="translate(0.936 5.565)">
          <path id="path4459" d="M-559.55-237.485l0-21.164A3.347,3.347,0,0,0-562.9-262l-13.262,0a3.346,3.346,0,0,0-3.043,1.955l-2.921,6.389a3.347,3.347,0,0,1-3.044,1.955h-28.784a3.347,3.347,0,0,0-3.347,3.347v30.826a3.347,3.347,0,0,0,3.348,3.347l29.875-.01" transform="translate(617.3 261.995)" fill="none" stroke="#008c00" stroke-linecap="round" stroke-linejoin="round" stroke-miterlimit="10" stroke-width="2"/>
        </g>
      </g>
    </g>
  </g>
</svg>
