<svg xmlns="http://www.w3.org/2000/svg" width="48.21" height="60.263" viewBox="0 0 48.21 60.263">
  <g id="shield" transform="translate(-29.4)">
    <g id="Group_179" data-name="Group 179" transform="translate(48.504 20.99)">
      <g id="Group_178" data-name="Group 178">
        <path id="Path_46" data-name="Path 46" d="M132.275,114.7c-.082-.246-.164-.574-.246-.82a1.785,1.785,0,0,0-.41-.656,1.916,1.916,0,0,0-.574-.574c-.246-.164-.41-.41-.656-.574l-.738-.492a3.83,3.83,0,0,0-.82-.41,4,4,0,0,0-.9-.328c-.164-.082-.328-.082-.41-.164a1.385,1.385,0,0,0-.41-.164c-.164-.082-.246-.164-.41-.246-.082-.082-.246-.164-.328-.328a1.792,1.792,0,0,1-.246-.41.6.6,0,0,1-.164-.492v-.492a.626.626,0,0,1,.164-.41c.082-.164.164-.246.246-.41s.246-.246.328-.328l.492-.246a1.216,1.216,0,0,1,.574-.082h.656a1.6,1.6,0,0,1,.574.082c.164,0,.41.082.574.082s.246.082.41.082a.891.891,0,0,0,.41.082l.574.164.082-.574.246-1.722.082-.41-.41-.164a.739.739,0,0,0-.41-.082,3.552,3.552,0,0,0-.41-.082c-.164,0-.328-.082-.492-.082s-.328-.082-.492-.082H129V102.4h-2.542v2.132h-.164a3.031,3.031,0,0,0-.9.41,4.977,4.977,0,0,0-.82.574,5.305,5.305,0,0,0-.656.738c-.164.246-.328.574-.492.82a4.622,4.622,0,0,0-.328.984,4.331,4.331,0,0,0-.082,1.066,2.789,2.789,0,0,0,.082.82c.082.246.164.574.246.82a1.785,1.785,0,0,0,.41.656,1.916,1.916,0,0,0,.574.574,4.548,4.548,0,0,1,.656.492,7.211,7.211,0,0,0,.82.492c.328.164.574.246.9.41a4,4,0,0,0,.9.328c.164.082.328.082.41.164.164.082.246.164.41.246a1.449,1.449,0,0,1,.574.574.626.626,0,0,1,.164.41,1.04,1.04,0,0,1,.082.492v.492a.626.626,0,0,1-.164.41.64.64,0,0,1-.328.328,1.792,1.792,0,0,1-.41.246c-.164.082-.246.164-.41.164a1.04,1.04,0,0,1-.492.082h-.82a1.4,1.4,0,0,1-.574-.082c-.164,0-.41-.082-.574-.082-.246-.082-.492-.082-.656-.164a5.648,5.648,0,0,1-.656-.246c-.082,0-.164-.082-.246-.082-.082-.082-.164-.082-.246-.164l-.656-.328-.082.656-.246,1.886-.082.328.328.164c.246.082.492.246.738.328l.738.246a2.426,2.426,0,0,0,.82.164c.246.082.574.082.82.164h.164v2.132h2.706V120.11h.164a5.015,5.015,0,0,0,.984-.41,2.945,2.945,0,0,0,.82-.574,5.3,5.3,0,0,0,.656-.738c.164-.246.328-.574.492-.82a4.623,4.623,0,0,0,.328-.984,3.992,3.992,0,0,0,.082-.984C132.357,115.272,132.357,115.027,132.275,114.7Z" transform="translate(-122.6 -102.4)" fill="#008c00"/>
      </g>
    </g>
    <g id="Group_181" data-name="Group 181" transform="translate(38.583 15.906)">
      <g id="Group_180" data-name="Group 180">
        <path id="Path_47" data-name="Path 47" d="M89.122,77.6a14.963,14.963,0,1,0,14.922,15A14.924,14.924,0,0,0,89.122,77.6Zm0,27.3a12.3,12.3,0,1,1,12.3-12.3A12.282,12.282,0,0,1,89.122,104.9Z" transform="translate(-74.2 -77.6)" fill="#008c00"/>
      </g>
    </g>
    <g id="Group_183" data-name="Group 183" transform="translate(29.4)">
      <g id="Group_182" data-name="Group 182">
        <path id="Path_48" data-name="Path 48" d="M77.036,5.821a1.308,1.308,0,0,0-1.23-.164,20.125,20.125,0,0,1-7.625,1.558A17.929,17.929,0,0,1,54.571.574,1.4,1.4,0,0,0,53.505,0a1.2,1.2,0,0,0-1.066.574c-.082.082-5,6.641-13.61,6.641A20.125,20.125,0,0,1,31.2,5.657a1.308,1.308,0,0,0-1.23.164A1.4,1.4,0,0,0,29.4,6.887V34.108c0,9.511,7.461,21.727,23.777,26.073.082,0,.246.082.328.082a.493.493,0,0,0,.328-.082C70.149,55.835,77.61,43.619,77.61,34.108V6.887A1.4,1.4,0,0,0,77.036,5.821ZM53.505,57.639c-14.758-4.1-21.481-15-21.481-23.449V8.773a22.268,22.268,0,0,0,6.723,1.148A20.147,20.147,0,0,0,53.423,3.444,20.147,20.147,0,0,0,68.1,9.921a21.45,21.45,0,0,0,6.723-1.148V34.19h.164C74.987,42.635,68.263,53.54,53.505,57.639Z" transform="translate(-29.4)" fill="#008c00"/>
      </g>
    </g>
  </g>
</svg>
