<svg id="startup" xmlns="http://www.w3.org/2000/svg" width="106.698" height="106.698" viewBox="0 0 106.698 106.698">
  <g id="Group_204" data-name="Group 204" transform="translate(52.429 50.102)">
    <g id="Group_203" data-name="Group 203">
      <path id="Path_156" data-name="Path 156" d="M255.145,241.03a2.084,2.084,0,1,0,0,2.947A2.084,2.084,0,0,0,255.145,241.03Z" transform="translate(-251.587 -240.418)" fill="#fff"/>
    </g>
  </g>
  <g id="Group_206" data-name="Group 206" transform="translate(64.728 21.134)">
    <g id="Group_205" data-name="Group 205">
      <path id="Path_157" data-name="Path 157" d="M328.386,104.469a10.42,10.42,0,1,0,0,14.736A10.415,10.415,0,0,0,328.386,104.469Zm-2.947,11.789a6.252,6.252,0,1,1,0-8.842A6.26,6.26,0,0,1,325.438,116.258Z" transform="translate(-310.603 -101.415)" fill="#fff"/>
    </g>
  </g>
  <g id="Group_208" data-name="Group 208" transform="translate(20.009 0)">
    <g id="Group_207" data-name="Group 207">
      <path id="Path_158" data-name="Path 158" d="M182.1.61A2.077,2.077,0,0,0,180.548,0a92.577,92.577,0,0,0-25.026,5.182c-10.686,3.773-19.594,9.175-26.475,16.057-1.542,1.542-3.042,3.177-4.478,4.876-6.8-4-12.256-2.749-15.7-.9-7.936,4.247-12.848,15.779-12.848,24.027a2.084,2.084,0,0,0,3.558,1.474,13.267,13.267,0,0,1,11.034-3.7l.73.73A73.3,73.3,0,0,0,107.9,57.861a5.9,5.9,0,0,0,.252,3.62,19.735,19.735,0,0,0-5.628,3.968c-5.364,5.365-6.454,18.438-6.5,18.992A2.084,2.084,0,0,0,98.1,86.688q.082,0,.164-.006c.554-.044,13.628-1.133,18.992-6.5a19.736,19.736,0,0,0,3.967-5.626,5.885,5.885,0,0,0,3.622.251,73.309,73.309,0,0,0,10.12-3.441l.73.73A13.267,13.267,0,0,1,132,83.131a2.084,2.084,0,0,0,1.474,3.557c8.248,0,19.78-4.912,24.027-12.848,1.844-3.446,3.1-8.9-.9-15.7,1.7-1.435,3.333-2.935,4.876-4.478,6.881-6.881,12.283-15.789,16.056-26.474A92.576,92.576,0,0,0,182.7,2.159,2.084,2.084,0,0,0,182.1.61ZM100.677,44.755c1.295-6.265,5.055-13.14,10.156-15.87,3.409-1.824,7.135-1.645,11.1.523a84.26,84.26,0,0,0-8.756,14.272,2.2,2.2,0,0,0-1.1-.648A17.812,17.812,0,0,0,100.677,44.755Zm13.634,32.482c-2.865,2.865-9.587,4.377-13.836,4.994.617-4.249,2.129-10.97,4.994-13.836a15.018,15.018,0,0,1,5.335-3.506l7.013,7.013A15.015,15.015,0,0,1,114.311,77.237Zm9.5-6.466a1.955,1.955,0,0,1-1.821-.591L117.909,66.1l-5.382-5.382a1.957,1.957,0,0,1-.592-1.821,67.668,67.668,0,0,1,2.6-7.959L131.77,68.17A67.625,67.625,0,0,1,123.812,70.771Zm30.01,1.1c-2.73,5.1-9.6,8.862-15.87,10.156a17.737,17.737,0,0,0,1.708-11.445,2.176,2.176,0,0,0-.634-1.053A84.292,84.292,0,0,0,153.3,60.776C155.467,64.738,155.646,68.465,153.822,71.873Zm4.7-21.161a75.642,75.642,0,0,1-6.01,5.392A80.065,80.065,0,0,1,135.9,66.4L116.3,46.81A80.052,80.052,0,0,1,126.6,30.2a75.628,75.628,0,0,1,5.392-6.011A64.981,64.981,0,0,1,155.683,9.562l17.462,17.462A64.976,64.976,0,0,1,158.52,50.713Zm16.124-28.084L160.078,8.063a93.691,93.691,0,0,1,18.286-3.72A93.705,93.705,0,0,1,174.644,22.629Z" transform="translate(-96.018 0)" fill="#fff"/>
    </g>
  </g>
  <g id="Group_210" data-name="Group 210" transform="translate(40.641 85.467)">
    <g id="Group_209" data-name="Group 209">
      <path id="Path_159" data-name="Path 159" d="M204.471,410.731a2.084,2.084,0,0,0-2.947,0l-5.893,5.9a2.084,2.084,0,1,0,2.948,2.947l5.893-5.9A2.084,2.084,0,0,0,204.471,410.731Z" transform="translate(-195.021 -410.121)" fill="#fff"/>
    </g>
  </g>
  <g id="Group_212" data-name="Group 212" transform="translate(11.168 55.996)">
    <g id="Group_211" data-name="Group 211">
      <path id="Path_160" data-name="Path 160" d="M63.045,269.312a2.084,2.084,0,0,0-2.947,0L54.2,275.2a2.084,2.084,0,1,0,2.946,2.948l5.9-5.893A2.084,2.084,0,0,0,63.045,269.312Z" transform="translate(-53.592 -268.701)" fill="#fff"/>
    </g>
  </g>
  <g id="Group_214" data-name="Group 214" transform="translate(17.682 88.416)">
    <g id="Group_213" data-name="Group 213">
      <path id="Path_161" data-name="Path 161" d="M102.526,424.882a2.084,2.084,0,0,0-2.947,0L85.462,439a2.084,2.084,0,0,0,2.947,2.947l14.117-14.115A2.084,2.084,0,0,0,102.526,424.882Z" transform="translate(-84.851 -424.271)" fill="#fff"/>
    </g>
  </g>
  <g id="Group_216" data-name="Group 216" transform="translate(1.011 88.416)">
    <g id="Group_215" data-name="Group 215">
      <path id="Path_162" data-name="Path 162" d="M22.526,424.882a2.084,2.084,0,0,0-2.947,0L5.462,439a2.084,2.084,0,0,0,2.947,2.947l14.117-14.115A2.084,2.084,0,0,0,22.526,424.882Z" transform="translate(-4.851 -424.271)" fill="#fff"/>
    </g>
  </g>
  <g id="Group_218" data-name="Group 218" transform="translate(0 70.731)">
    <g id="Group_217" data-name="Group 217">
      <path id="Path_163" data-name="Path 163" d="M17.673,340.02a2.084,2.084,0,0,0-2.947,0L.612,354.137a2.084,2.084,0,0,0,2.947,2.947l14.115-14.117A2.084,2.084,0,0,0,17.673,340.02Z" transform="translate(-0.001 -339.41)" fill="#fff"/>
    </g>
  </g>
  <g id="Group_220" data-name="Group 220" transform="translate(58.323 41.26)">
    <g id="Group_219" data-name="Group 219">
      <path id="Path_164" data-name="Path 164" d="M286.376,198.6a2.084,2.084,0,0,0-2.947,0l-2.947,2.947a2.084,2.084,0,0,0,2.947,2.947l2.947-2.947A2.084,2.084,0,0,0,286.376,198.6Z" transform="translate(-279.871 -197.99)" fill="#fff"/>
    </g>
  </g>
</svg>
