<svg id="success" xmlns="http://www.w3.org/2000/svg" width="91.487" height="120.472" viewBox="0 0 91.487 120.472">
  <ellipse id="Ellipse_13" data-name="Ellipse 13" cx="13.558" cy="13.558" rx="13.558" ry="13.558" transform="translate(31.518 46.618)" fill="#fff"/>
  <path id="Path_165" data-name="Path 165" d="M144.962,179.685h0a7.946,7.946,0,0,0-7.942,7.945v7.8a27.841,27.841,0,0,1-55.681,0v-7.8a7.944,7.944,0,1,0-15.887,0v7.655a43.659,43.659,0,0,0,17.381,34.9,2.447,2.447,0,0,1,.972,1.952v21.491a2.453,2.453,0,0,0,2.453,2.453h45.4a2.453,2.453,0,0,0,2.453-2.453V232.359a2.446,2.446,0,0,1,.983-1.961A44.389,44.389,0,0,0,152.9,194.814V187.63A7.946,7.946,0,0,0,144.962,179.685Z" transform="translate(-63.888 -135.613)" fill="#fff"/>
  <path id="Path_166" data-name="Path 166" d="M172.371,22.9a2.654,2.654,0,0,1,.6,1.823l-.46,8.887a2.652,2.652,0,0,0,3.628,2.6l8.143-3.237a2.652,2.652,0,0,1,1.96,0l8.143,3.237a2.652,2.652,0,0,0,3.628-2.6l-.46-8.887a2.651,2.651,0,0,1,.6-1.823l5.5-6.683a2.652,2.652,0,0,0-1.33-4.239l-8.548-2.4a2.653,2.653,0,0,1-1.5-1.094l-4.8-7.287a2.653,2.653,0,0,0-4.429,0l-4.8,7.287a2.653,2.653,0,0,1-1.5,1.094l-8.548,2.4a2.652,2.652,0,0,0-1.33,4.239Z" transform="translate(-139.975 -0.001)" fill="#fff"/>
  <path id="Path_167" data-name="Path 167" d="M79.934,65.128a3.679,3.679,0,0,0,0-5.2L65.367,45.358a3.679,3.679,0,0,0-5.2,5.2L74.731,65.128A3.679,3.679,0,0,0,79.934,65.128Z" transform="translate(-59.086 -33.419)" fill="#fff"/>
  <path id="Path_168" data-name="Path 168" d="M363.538,45.358a3.679,3.679,0,0,0-5.2,0L343.768,59.925a3.679,3.679,0,0,0,5.2,5.2l14.567-14.567A3.679,3.679,0,0,0,363.538,45.358Z" transform="translate(-273.129 -33.419)" fill="#fff"/>
</svg>
