<svg id="target" xmlns="http://www.w3.org/2000/svg" width="61.867" height="69.203" viewBox="0 0 61.867 69.203">
  <path id="Path_154" data-name="Path 154" d="M56.809,31.182H53.219a1.014,1.014,0,0,0,0,2.028h1.143l-3.083,3.083a1.014,1.014,0,1,0,1.434,1.434L55.8,34.644v1.143a1.014,1.014,0,0,0,2.028,0V32.2A1.026,1.026,0,0,0,56.809,31.182ZM88.95,5.2A1.557,1.557,0,0,0,87.834,4.1L85.5,3.509,84.9,1.172A1.555,1.555,0,0,0,82.3.455L75.707,7.046A1.562,1.562,0,0,0,75.3,8.521l.75,3L72.94,14.631A27.237,27.237,0,0,0,36.2,14.306a1.014,1.014,0,1,0,1.354,1.509,25.211,25.211,0,0,1,33.953.25l-4.826,4.826a18.413,18.413,0,1,0-2.306,29.188,1.014,1.014,0,1,0-1.1-1.7,16.389,16.389,0,1,1,1.971-26.05l-4.837,4.837A9.583,9.583,0,1,0,61.842,28.6l4.837-4.837a16.355,16.355,0,0,1,0,21.692A1.014,1.014,0,0,0,68.193,46.8a18.381,18.381,0,0,0-.078-24.471L72.94,17.5a25.226,25.226,0,1,1-38.477,1.634,1.014,1.014,0,1,0-1.6-1.244,27.239,27.239,0,0,0,2.129,35.838l-4.217,7.3a5.451,5.451,0,0,0,9.442,5.45l3.842-6.654a27.242,27.242,0,0,0,20.689,0L68.59,66.48a5.451,5.451,0,0,0,9.442-5.45l-4.217-7.3a27.212,27.212,0,0,0,.56-37.661L77.5,12.936l2.971.767a1.564,1.564,0,0,0,1.488-.406l6.589-6.589a1.558,1.558,0,0,0,.4-1.511ZM61.942,34.6a7.55,7.55,0,1,1-2.977-6l-.2.2A1.014,1.014,0,0,0,60.2,30.244l.2-.2A7.5,7.5,0,0,1,61.942,34.6ZM38.46,65.466a3.423,3.423,0,1,1-5.93-3.422l3.978-6.89a27.367,27.367,0,0,0,5.7,3.826Zm37.815-3.423a3.423,3.423,0,1,1-5.93,3.423L66.6,58.981a27.368,27.368,0,0,0,5.7-3.826Zm4.444-50.372L78,10.97,77.33,8.29l5.813-5.813.458,1.8A1.553,1.553,0,0,0,84.725,5.4l1.8.458Z" transform="translate(-27.139 0)" fill="#009c00"/>
</svg>
