<svg xmlns="http://www.w3.org/2000/svg" width="57" height="35" viewBox="0 0 57 35">
  <g id="Group_124" data-name="Group 124" transform="translate(0.365 -0.198)">
    <rect id="Rectangle_109" data-name="Rectangle 109" width="57" height="35" rx="5" transform="translate(-0.365 0.198)" fill="#27348d"/>
    <g id="visa" transform="translate(7.246 11.261)">
      <path id="Path_139" data-name="Path 139" d="M184.8,192.221l2.1-11.821h3.284l-2.036,11.821Z" transform="translate(-169.629 -180.006)" fill="#fff"/>
      <path id="Path_140" data-name="Path 140" d="M184.8,192.221l2.693-11.821h2.693l-2.036,11.821Z" transform="translate(-169.629 -180.006)" fill="#fff"/>
      <path id="Path_141" data-name="Path 141" d="M258.048,176.125a8.33,8.33,0,0,0-3.021-.525c-3.284,0-5.648,1.642-5.648,4.006,0,1.773,1.642,2.693,2.955,3.284s1.708.985,1.708,1.511c0,.788-1.051,1.182-1.97,1.182a7.138,7.138,0,0,1-3.152-.657l-.46-.2-.46,2.693a10.65,10.65,0,0,0,3.743.657c3.481,0,5.779-1.642,5.779-4.137,0-1.379-.854-2.43-2.824-3.284-1.182-.591-1.9-.919-1.9-1.51,0-.525.591-1.051,1.9-1.051a6.023,6.023,0,0,1,2.5.46l.328.131.525-2.561Z" transform="translate(-227.641 -175.6)" fill="#fff"/>
      <path id="Path_142" data-name="Path 142" d="M258.048,176.125a8.33,8.33,0,0,0-3.021-.525c-3.284,0-5.057,1.642-5.057,4.006a3.433,3.433,0,0,0,2.364,3.284c1.314.591,1.708.985,1.708,1.511,0,.788-1.051,1.182-1.97,1.182a7.138,7.138,0,0,1-3.152-.657l-.46-.2-.46,2.693a10.65,10.65,0,0,0,3.743.657c3.481,0,5.779-1.642,5.779-4.137,0-1.379-.854-2.43-2.824-3.284-1.182-.591-1.9-.919-1.9-1.51,0-.525.591-1.051,1.9-1.051a6.023,6.023,0,0,1,2.5.46l.328.131.525-2.561Z" transform="translate(-227.641 -175.6)" fill="#fff"/>
      <path id="Path_143" data-name="Path 143" d="M365.033,180.4c-.788,0-1.379.066-1.708.854L358.4,192.221h3.546l.657-1.97h4.2l.394,1.97h3.152L367.594,180.4Zm-1.51,7.881c.2-.591,1.313-3.481,1.313-3.481s.263-.722.46-1.182l.2,1.116s.657,2.955.788,3.612h-2.758Z" transform="translate(-328.978 -180.006)" fill="#fff"/>
      <path id="Path_144" data-name="Path 144" d="M365.821,180.4c-.788,0-1.379.066-1.708.854L358.4,192.221h3.546l.657-1.97h4.2l.394,1.97h3.152L367.594,180.4Zm-2.3,7.881c.263-.657,1.313-3.481,1.313-3.481s.263-.722.46-1.182l.2,1.116s.657,2.955.788,3.612h-2.758Z" transform="translate(-328.978 -180.006)" fill="#fff"/>
      <path id="Path_145" data-name="Path 145" d="M56.126,189.409,55.8,187.7a9.52,9.52,0,0,0-4.6-5.188l2.955,10.508H57.7l5.32-11.821H59.475Z" transform="translate(-46.997 -180.74)" fill="#fff"/>
      <path id="Path_146" data-name="Path 146" d="M56.126,189.409,55.8,187.7a9.52,9.52,0,0,0-4.6-5.188l2.955,10.508H57.7l5.32-11.821h-2.89Z" transform="translate(-46.997 -180.74)" fill="#fff"/>
      <path id="Path_147" data-name="Path 147" d="M0,180.4l.591.131c4.2.985,7.093,3.481,8.209,6.436l-1.182-5.582c-.2-.788-.788-.985-1.511-.985Z" transform="translate(0 -180.006)" fill="#ffbc00"/>
      <path id="Path_148" data-name="Path 148" d="M0,180.4H0c4.2.985,7.684,3.546,8.8,6.5l-1.116-4.663a1.6,1.6,0,0,0-1.576-1.248Z" transform="translate(0 -180.006)" fill="#f7981d"/>
      <path id="Path_149" data-name="Path 149" d="M0,180.4H0c4.2.985,7.684,3.546,8.8,6.5l-.788-2.561a2.316,2.316,0,0,0-1.379-1.9Z" transform="translate(0 -180.006)" fill="#ed7c00"/>
      <g id="Group_123" data-name="Group 123" transform="translate(4.269 1.708)">
        <path id="Path_150" data-name="Path 150" d="M60.144,202.967l-2.233-2.233-1.051,2.5-.263-1.642A9.52,9.52,0,0,0,52,196.4l2.955,10.508H58.5Z" transform="translate(-52 -196.4)" fill="#fff"/>
        <path id="Path_151" data-name="Path 151" d="M188.149,292.09l-2.824-2.89-.525,2.89Z" transform="translate(-173.898 -281.582)" fill="#fff"/>
        <path id="Path_152" data-name="Path 152" d="M253.714,274.8h0c.263.263.394.46.328.722,0,.788-1.051,1.182-1.97,1.182a7.139,7.139,0,0,1-3.152-.657l-.46-.2-.46,2.693a10.649,10.649,0,0,0,3.743.657,6.5,6.5,0,0,0,4.794-1.642Z" transform="translate(-231.91 -268.364)" fill="#fff"/>
        <path id="Path_153" data-name="Path 153" d="M364,228.2h3.087l.657-1.97h4.2l.394,1.97h3.152l-1.116-4.794-3.94-3.809.2,1.051s.657,2.955.788,3.612h-2.758c.263-.657,1.313-3.481,1.313-3.481s.263-.722.46-1.182" transform="translate(-338.387 -217.695)" fill="#fff"/>
      </g>
    </g>
  </g>
</svg>
